PathFileType	4	(X/Y/Z)	31_2_rein_49_p0_0-279.trc
DataRate	CameraRate	NumFrames	NumMarkers	Units	OrigDataRate	OrigDataStartFrame	OrigNumFrames
45.0	45.0	4	27	m	45.0	0	280
Frame#	Time	RHip			RKnee			RAnkle			RBigToe			RSmallToe			RHeel			LHip			LKnee			LAnkle			LBigToe			LSmallToe			LHeel			Neck			Head			Nose			RShoulder			RElbow			RWrist			RThumb			RIndex			RPinky			LShoulder			LElbow			LWrist			LThumb			LIndex			LPinky			
		X1	Y1	Z1	X2	Y2	Z2	X3	Y3	Z3	X4	Y4	Z4	X5	Y5	Z5	X6	Y6	Z6	X7	Y7	Z7	X8	Y8	Z8	X9	Y9	Z9	X10	Y10	Z10	X11	Y11	Z11	X12	Y12	Z12	X13	Y13	Z13	X14	Y14	Z14	X15	Y15	Z15	X16	Y16	Z16	X17	Y17	Z17	X18	Y18	Z18	X19	Y19	Z19	X20	Y20	Z20	X21	Y21	Z21	X22	Y22	Z22	X23	Y23	Z23	X24	Y24	Z24	X25	Y25	Z25	X26	Y26	Z26	X27	Y27	Z27	
0	0.0	0.2103317862216328	0.5493847851444843	0.2005793385679407	0.18241768330525102	0.8117247874808814	0.5494275594544374	0.11360995871856198	1.0487325932784881	0.9211325069483067	0.0604312872077824	0.8053647102114936	1.010046559578036	0.13239883674282618	0.8732225356988419	1.0101729211443375	0.09351675211406367	1.1456961426260788	0.9545835533753311	-0.03057730910907711	0.6320089485440908	0.18477878861380126	-0.05501699025141407	0.8156585207046636	0.535288565542905	-0.08037163293539133	1.0272070341621484	0.903284288421022	-0.07474900040755718	0.8450506420246748	0.9856351426685153	-0.11936791705655347	0.8915849869173768	0.9799098644703776	-0.06715654906886386	1.1116536048525067	0.9411396913862186	0.13488767707414398	0.27746293848075615	-0.38777794365121354	0.10639389868110112	0.08353070116696672	-0.6039905407527061	0.09864717583784928	0.11048896295805742	-0.4571637198019618	0.28457482354319436	0.3135404177140486	-0.2943505422515446	0.3320310128268394	0.4214323159949583	-6.662240882018388e-05	0.1174796490651023	0.3354649331603399	0.16406969006943553	0.05170502627983114	0.37885860249671505	0.20074005514348342	0.038924852615244684	0.41904926220046135	0.2539638635452206	0.030917011542408966	0.4054002835872515	0.2544191067773652	-0.024281898351298223	0.36336605571852676	-0.32344337743293955	-0.07081605130603642	0.4255354090063976	-0.033163971989934996	0.0425516491611761	0.3910574681039942	0.1962996910067374	0.12057232092715058	0.3838966831847906	0.2708897567288943	0.12257117118465365	0.3945947990675354	0.29222560782541185	0.08202473512286791	0.39039930728554956	0.3164223308506484
1	0.022222222222222223	0.20897259231342988	0.5522042683774688	0.20682511832737857	0.1821952778115028	0.8117176583164247	0.5497328778969947	0.11864814089715603	1.0496139202209922	0.9215189967058569	0.06044424042081589	0.8061584005766738	1.0101507377427597	0.13261340074727512	0.8746903624297131	1.0100490115314757	0.10197224261850658	1.1434550520138975	0.9550552921342252	-0.03063554224552417	0.6321494069862222	0.18507497710802132	-0.05514400665637154	0.8157537374903925	0.5353480171952918	-0.08029479964468972	1.026949343152049	0.9032376458765123	-0.07175797903671927	0.8603074300124784	0.9877220187373317	-0.11933254924639504	0.8916921435198489	0.9800289807459692	-0.064114960187736	1.1227636556244345	0.9392366232187443	0.1348752154809161	0.2773718636458146	-0.3878500795335599	0.10635103107406982	0.08288755195986328	-0.603582514965567	0.09851601729260255	0.11166063423423565	-0.45427002792236154	0.2845048468161875	0.3139059569608996	-0.29440556146392655	0.3319992348286992	0.42145860582352795	-0.00017379050604019673	0.1168419864663809	0.33658450495951503	0.16736271807825345	0.06415391805224162	0.34025721640451373	0.21186554031798172	0.03861177163843998	0.41645983448731283	0.2544855468712596	0.027035621635431623	0.3935355667491206	0.2561419387094657	-0.02781797186843938	0.3520703304776902	-0.31970122046115745	-0.06956042911125278	0.4232736553430611	-0.03962739395263258	0.042489680829518206	0.3911684808733607	0.19623242126175192	0.12333053184553776	0.3711280614696887	0.2726981306216055	0.12771723118396858	0.39455104459563634	0.2952236922757043	0.08074603931379083	0.3941786249586692	0.32253543757727676
2	0.044444444444444446	0.20894745445223908	0.5521817009552795	0.20671667331917698	0.18123505506740342	0.8137282794100056	0.5533591998698897	0.11865932189242787	1.0495957810496528	0.9214839911069702	0.06028552320859105	0.8059752858290185	1.0102323182523512	0.1324419258661342	0.8741208989595649	1.0100932213448297	0.1019740804732181	1.1433864456182112	0.9550021661700444	-0.030660243596371563	0.6320148342182029	0.18485517255934888	-0.05514901615481836	0.815647691324624	0.5352221723583569	-0.08029490761820819	1.0270425684525617	0.9032630569945134	-0.07168845523902477	0.8602987613663299	0.9878781921433485	-0.12386243374032242	0.9081660058490181	0.9815217221202661	-0.06408427041351562	1.122919917141096	0.9391263711896889	0.13485675566938327	0.277351334720503	-0.3878770084360428	0.1063566428886954	0.08291244405711319	-0.6036466258860496	0.09862284489459386	0.10846339336431621	-0.46002900003581876	0.2844880724748465	0.31378653450703153	-0.29440915021670877	0.3319917012039858	0.42140301554614884	-0.00015124789812246092	0.11679788079645727	0.3364610648087407	0.16734449683716962	0.07260154550053521	0.3148325695336501	0.21705035937298098	0.042707879308363145	0.4030766173518666	0.25429731696555585	0.0228341167777421	0.37923219937853647	0.25415585621901293	-0.02432594903998619	0.3631740094569226	-0.3232966518754171	-0.0695866999140795	0.4232026600292399	-0.039626368922890454	0.04246330713735053	0.3910733772307558	0.1963138800868963	0.12328966026848459	0.3715176822490547	0.27274773310942774	0.12773324930485824	0.3943970029516562	0.2952903866755273	0.08068741868254117	0.3942557285703847	0.3225175615775834
3	0.06666666666666667	0.20628324436706527	0.5666807061062649	0.20438771998632368	0.18129459686943303	0.8136925188452815	0.5532185913232498	0.11863307197733053	1.0495715866166069	0.9215108423356873	0.06016073088152769	0.8059039190828423	1.0102686838476103	0.13241227257088697	0.8741036766478677	1.0101167870461591	0.10196408886184678	1.1433990442571316	0.9549661717139583	-0.030650220363613413	0.6321191050241054	0.1847804520597583	-0.0551365996678954	0.8156041291528638	0.5352498058911919	-0.08031732478333677	1.027009601631898	0.9032783720596359	-0.07465683221099656	0.8450268541445626	0.9856454557025814	-0.11928884693864383	0.8916313091015722	0.9798226875025057	-0.06411413694353459	1.122960886660514	0.9392343208475021	0.1349647220567197	0.27619405749051296	-0.3909987224326682	0.10640530632983149	0.08295765119186571	-0.6037620241372509	0.09860256651716338	0.1084535676506013	-0.4600317030881358	0.28444564947386297	0.31370667157620225	-0.29439128193986186	0.3319746307854069	0.42140109660834174	-0.00015948232607675768	0.11300612143176199	0.3359628315758223	0.1672207170644806	0.07261804024647023	0.3149434659845158	0.219303500758804	0.04328678559365248	0.4063724529573699	0.26052538921290325	0.027048024880132752	0.3934761345280817	0.2561095266214883	-0.024282276846417292	0.36324397614030013	-0.32337415365956484	-0.0696229788037265	0.4232596023905016	-0.039648253312742666	0.042443362670233485	0.3910836782231622	0.19624755205659325	0.12322976170751089	0.3715251328336064	0.2727206216814001	0.12443493350060805	0.3835783188594074	0.29632207138210465	0.08054921341155628	0.3944419423757987	0.3223440022134149
